ISO-10303-21;
HEADER;
/* Generated by software containing ST-Developer
 * from STEP Tools, Inc. (www.steptools.com) 
 */

FILE_DESCRIPTION(
/* description */ (''),
/* implementation_level */ '2;1');

FILE_NAME(
/* name */ 'Vibration_Module_Holder.step',
/* time_stamp */ '2026-06-14T19:31:58+05:30',
/* author */ (''),
/* organization */ (''),
/* preprocessor_version */ 'ST-DEVELOPER v20.1',
/* originating_system */ 'Autodesk Translation Framework v15.8.0.0',
/* authorisation */ '');

FILE_SCHEMA (('AUTOMOTIVE_DESIGN { 1 0 10303 214 3 1 1 }'));
ENDSEC;

DATA;
#10=MECHANICAL_DESIGN_GEOMETRIC_PRESENTATION_REPRESENTATION('',(#13,#14,
#15),#755);
#11=SHAPE_REPRESENTATION_RELATIONSHIP('SRR','None',#762,#12);
#12=ADVANCED_BREP_SHAPE_REPRESENTATION('',(#16,#17,#18),#754);
#13=STYLED_ITEM('',(#771),#16);
#14=STYLED_ITEM('',(#771),#17);
#15=STYLED_ITEM('',(#771),#18);
#16=MANIFOLD_SOLID_BREP('Body1',#457);
#17=MANIFOLD_SOLID_BREP('Body2',#458);
#18=MANIFOLD_SOLID_BREP('Body3',#459);
#19=FACE_OUTER_BOUND('',#55,.T.);
#20=FACE_OUTER_BOUND('',#56,.T.);
#21=FACE_OUTER_BOUND('',#57,.T.);
#22=FACE_OUTER_BOUND('',#58,.T.);
#23=FACE_OUTER_BOUND('',#59,.T.);
#24=FACE_OUTER_BOUND('',#60,.T.);
#25=FACE_OUTER_BOUND('',#61,.T.);
#26=FACE_OUTER_BOUND('',#62,.T.);
#27=FACE_OUTER_BOUND('',#63,.T.);
#28=FACE_OUTER_BOUND('',#64,.T.);
#29=FACE_OUTER_BOUND('',#65,.T.);
#30=FACE_OUTER_BOUND('',#66,.T.);
#31=FACE_OUTER_BOUND('',#67,.T.);
#32=FACE_OUTER_BOUND('',#68,.T.);
#33=FACE_OUTER_BOUND('',#69,.T.);
#34=FACE_OUTER_BOUND('',#70,.T.);
#35=FACE_OUTER_BOUND('',#71,.T.);
#36=FACE_OUTER_BOUND('',#72,.T.);
#37=FACE_OUTER_BOUND('',#73,.T.);
#38=FACE_OUTER_BOUND('',#74,.T.);
#39=FACE_OUTER_BOUND('',#75,.T.);
#40=FACE_OUTER_BOUND('',#76,.T.);
#41=FACE_OUTER_BOUND('',#77,.T.);
#42=FACE_OUTER_BOUND('',#78,.T.);
#43=FACE_OUTER_BOUND('',#79,.T.);
#44=FACE_OUTER_BOUND('',#80,.T.);
#45=FACE_OUTER_BOUND('',#81,.T.);
#46=FACE_OUTER_BOUND('',#82,.T.);
#47=FACE_OUTER_BOUND('',#83,.T.);
#48=FACE_OUTER_BOUND('',#84,.T.);
#49=FACE_OUTER_BOUND('',#85,.T.);
#50=FACE_OUTER_BOUND('',#86,.T.);
#51=FACE_OUTER_BOUND('',#87,.T.);
#52=FACE_OUTER_BOUND('',#88,.T.);
#53=FACE_OUTER_BOUND('',#89,.T.);
#54=FACE_OUTER_BOUND('',#90,.T.);
#55=EDGE_LOOP('',(#277,#278,#279));
#56=EDGE_LOOP('',(#280,#281,#282));
#57=EDGE_LOOP('',(#283,#284,#285));
#58=EDGE_LOOP('',(#286,#287,#288));
#59=EDGE_LOOP('',(#289,#290,#291));
#60=EDGE_LOOP('',(#292,#293,#294));
#61=EDGE_LOOP('',(#295,#296,#297));
#62=EDGE_LOOP('',(#298,#299,#300));
#63=EDGE_LOOP('',(#301,#302,#303));
#64=EDGE_LOOP('',(#304,#305,#306));
#65=EDGE_LOOP('',(#307,#308,#309));
#66=EDGE_LOOP('',(#310,#311,#312));
#67=EDGE_LOOP('',(#313,#314,#315));
#68=EDGE_LOOP('',(#316,#317,#318));
#69=EDGE_LOOP('',(#319,#320,#321));
#70=EDGE_LOOP('',(#322,#323,#324));
#71=EDGE_LOOP('',(#325,#326,#327));
#72=EDGE_LOOP('',(#328,#329,#330));
#73=EDGE_LOOP('',(#331,#332,#333));
#74=EDGE_LOOP('',(#334,#335,#336));
#75=EDGE_LOOP('',(#337,#338,#339));
#76=EDGE_LOOP('',(#340,#341,#342));
#77=EDGE_LOOP('',(#343,#344,#345));
#78=EDGE_LOOP('',(#346,#347,#348));
#79=EDGE_LOOP('',(#349,#350,#351));
#80=EDGE_LOOP('',(#352,#353,#354));
#81=EDGE_LOOP('',(#355,#356,#357));
#82=EDGE_LOOP('',(#358,#359,#360));
#83=EDGE_LOOP('',(#361,#362,#363));
#84=EDGE_LOOP('',(#364,#365,#366));
#85=EDGE_LOOP('',(#367,#368,#369));
#86=EDGE_LOOP('',(#370,#371,#372));
#87=EDGE_LOOP('',(#373,#374,#375));
#88=EDGE_LOOP('',(#376,#377,#378));
#89=EDGE_LOOP('',(#379,#380,#381));
#90=EDGE_LOOP('',(#382,#383,#384));
#91=LINE('',#641,#145);
#92=LINE('',#643,#146);
#93=LINE('',#644,#147);
#94=LINE('',#647,#148);
#95=LINE('',#648,#149);
#96=LINE('',#652,#150);
#97=LINE('',#653,#151);
#98=LINE('',#654,#152);
#99=LINE('',#656,#153);
#100=LINE('',#658,#154);
#101=LINE('',#661,#155);
#102=LINE('',#662,#156);
#103=LINE('',#664,#157);
#104=LINE('',#667,#158);
#105=LINE('',#668,#159);
#106=LINE('',#670,#160);
#107=LINE('',#672,#161);
#108=LINE('',#674,#162);
#109=LINE('',#679,#163);
#110=LINE('',#681,#164);
#111=LINE('',#682,#165);
#112=LINE('',#685,#166);
#113=LINE('',#686,#167);
#114=LINE('',#690,#168);
#115=LINE('',#691,#169);
#116=LINE('',#692,#170);
#117=LINE('',#694,#171);
#118=LINE('',#696,#172);
#119=LINE('',#699,#173);
#120=LINE('',#700,#174);
#121=LINE('',#702,#175);
#122=LINE('',#705,#176);
#123=LINE('',#706,#177);
#124=LINE('',#708,#178);
#125=LINE('',#710,#179);
#126=LINE('',#712,#180);
#127=LINE('',#717,#181);
#128=LINE('',#719,#182);
#129=LINE('',#720,#183);
#130=LINE('',#723,#184);
#131=LINE('',#724,#185);
#132=LINE('',#728,#186);
#133=LINE('',#729,#187);
#134=LINE('',#730,#188);
#135=LINE('',#732,#189);
#136=LINE('',#734,#190);
#137=LINE('',#737,#191);
#138=LINE('',#738,#192);
#139=LINE('',#740,#193);
#140=LINE('',#743,#194);
#141=LINE('',#744,#195);
#142=LINE('',#746,#196);
#143=LINE('',#748,#197);
#144=LINE('',#750,#198);
#145=VECTOR('',#513,1.);
#146=VECTOR('',#514,1.);
#147=VECTOR('',#515,1.);
#148=VECTOR('',#518,1.);
#149=VECTOR('',#519,1.);
#150=VECTOR('',#522,1.);
#151=VECTOR('',#523,1.);
#152=VECTOR('',#524,1.);
#153=VECTOR('',#527,1.);
#154=VECTOR('',#530,1.);
#155=VECTOR('',#533,1.);
#156=VECTOR('',#534,1.);
#157=VECTOR('',#537,1.);
#158=VECTOR('',#540,1.);
#159=VECTOR('',#541,1.);
#160=VECTOR('',#544,1.);
#161=VECTOR('',#547,1.);
#162=VECTOR('',#550,1.);
#163=VECTOR('',#555,1.);
#164=VECTOR('',#556,1.);
#165=VECTOR('',#557,1.);
#166=VECTOR('',#560,1.);
#167=VECTOR('',#561,1.);
#168=VECTOR('',#564,1.);
#169=VECTOR('',#565,1.);
#170=VECTOR('',#566,1.);
#171=VECTOR('',#569,1.);
#172=VECTOR('',#572,1.);
#173=VECTOR('',#575,1.);
#174=VECTOR('',#576,1.);
#175=VECTOR('',#579,1.);
#176=VECTOR('',#582,1.);
#177=VECTOR('',#583,1.);
#178=VECTOR('',#586,1.);
#179=VECTOR('',#589,1.);
#180=VECTOR('',#592,1.);
#181=VECTOR('',#597,1.);
#182=VECTOR('',#598,1.);
#183=VECTOR('',#599,1.);
#184=VECTOR('',#602,1.);
#185=VECTOR('',#603,1.);
#186=VECTOR('',#606,1.);
#187=VECTOR('',#607,1.);
#188=VECTOR('',#608,1.);
#189=VECTOR('',#611,1.);
#190=VECTOR('',#614,1.);
#191=VECTOR('',#617,1.);
#192=VECTOR('',#618,1.);
#193=VECTOR('',#621,1.);
#194=VECTOR('',#624,1.);
#195=VECTOR('',#625,1.);
#196=VECTOR('',#628,1.);
#197=VECTOR('',#631,1.);
#198=VECTOR('',#634,1.);
#199=VERTEX_POINT('',#639);
#200=VERTEX_POINT('',#640);
#201=VERTEX_POINT('',#642);
#202=VERTEX_POINT('',#646);
#203=VERTEX_POINT('',#650);
#204=VERTEX_POINT('',#651);
#205=VERTEX_POINT('',#660);
#206=VERTEX_POINT('',#666);
#207=VERTEX_POINT('',#677);
#208=VERTEX_POINT('',#678);
#209=VERTEX_POINT('',#680);
#210=VERTEX_POINT('',#684);
#211=VERTEX_POINT('',#688);
#212=VERTEX_POINT('',#689);
#213=VERTEX_POINT('',#698);
#214=VERTEX_POINT('',#704);
#215=VERTEX_POINT('',#715);
#216=VERTEX_POINT('',#716);
#217=VERTEX_POINT('',#718);
#218=VERTEX_POINT('',#722);
#219=VERTEX_POINT('',#726);
#220=VERTEX_POINT('',#727);
#221=VERTEX_POINT('',#736);
#222=VERTEX_POINT('',#742);
#223=EDGE_CURVE('',#199,#200,#91,.T.);
#224=EDGE_CURVE('',#200,#201,#92,.T.);
#225=EDGE_CURVE('',#201,#199,#93,.T.);
#226=EDGE_CURVE('',#202,#199,#94,.T.);
#227=EDGE_CURVE('',#201,#202,#95,.T.);
#228=EDGE_CURVE('',#203,#204,#96,.T.);
#229=EDGE_CURVE('',#204,#199,#97,.T.);
#230=EDGE_CURVE('',#199,#203,#98,.T.);
#231=EDGE_CURVE('',#202,#203,#99,.T.);
#232=EDGE_CURVE('',#204,#200,#100,.T.);
#233=EDGE_CURVE('',#200,#205,#101,.T.);
#234=EDGE_CURVE('',#205,#201,#102,.T.);
#235=EDGE_CURVE('',#204,#205,#103,.T.);
#236=EDGE_CURVE('',#205,#206,#104,.T.);
#237=EDGE_CURVE('',#206,#201,#105,.T.);
#238=EDGE_CURVE('',#206,#202,#106,.T.);
#239=EDGE_CURVE('',#206,#203,#107,.T.);
#240=EDGE_CURVE('',#205,#203,#108,.T.);
#241=EDGE_CURVE('',#207,#208,#109,.T.);
#242=EDGE_CURVE('',#208,#209,#110,.T.);
#243=EDGE_CURVE('',#209,#207,#111,.T.);
#244=EDGE_CURVE('',#210,#207,#112,.T.);
#245=EDGE_CURVE('',#209,#210,#113,.T.);
#246=EDGE_CURVE('',#211,#212,#114,.T.);
#247=EDGE_CURVE('',#212,#207,#115,.T.);
#248=EDGE_CURVE('',#207,#211,#116,.T.);
#249=EDGE_CURVE('',#210,#211,#117,.T.);
#250=EDGE_CURVE('',#212,#208,#118,.T.);
#251=EDGE_CURVE('',#208,#213,#119,.T.);
#252=EDGE_CURVE('',#213,#209,#120,.T.);
#253=EDGE_CURVE('',#212,#213,#121,.T.);
#254=EDGE_CURVE('',#213,#214,#122,.T.);
#255=EDGE_CURVE('',#214,#209,#123,.T.);
#256=EDGE_CURVE('',#214,#210,#124,.T.);
#257=EDGE_CURVE('',#214,#211,#125,.T.);
#258=EDGE_CURVE('',#213,#211,#126,.T.);
#259=EDGE_CURVE('',#215,#216,#127,.T.);
#260=EDGE_CURVE('',#216,#217,#128,.T.);
#261=EDGE_CURVE('',#217,#215,#129,.T.);
#262=EDGE_CURVE('',#218,#215,#130,.T.);
#263=EDGE_CURVE('',#217,#218,#131,.T.);
#264=EDGE_CURVE('',#219,#220,#132,.T.);
#265=EDGE_CURVE('',#220,#215,#133,.T.);
#266=EDGE_CURVE('',#215,#219,#134,.T.);
#267=EDGE_CURVE('',#218,#219,#135,.T.);
#268=EDGE_CURVE('',#220,#216,#136,.T.);
#269=EDGE_CURVE('',#216,#221,#137,.T.);
#270=EDGE_CURVE('',#221,#217,#138,.T.);
#271=EDGE_CURVE('',#220,#221,#139,.T.);
#272=EDGE_CURVE('',#221,#222,#140,.T.);
#273=EDGE_CURVE('',#222,#217,#141,.T.);
#274=EDGE_CURVE('',#222,#218,#142,.T.);
#275=EDGE_CURVE('',#222,#219,#143,.T.);
#276=EDGE_CURVE('',#221,#219,#144,.T.);
#277=ORIENTED_EDGE('',*,*,#223,.T.);
#278=ORIENTED_EDGE('',*,*,#224,.T.);
#279=ORIENTED_EDGE('',*,*,#225,.T.);
#280=ORIENTED_EDGE('',*,*,#226,.T.);
#281=ORIENTED_EDGE('',*,*,#225,.F.);
#282=ORIENTED_EDGE('',*,*,#227,.T.);
#283=ORIENTED_EDGE('',*,*,#228,.T.);
#284=ORIENTED_EDGE('',*,*,#229,.T.);
#285=ORIENTED_EDGE('',*,*,#230,.T.);
#286=ORIENTED_EDGE('',*,*,#231,.T.);
#287=ORIENTED_EDGE('',*,*,#230,.F.);
#288=ORIENTED_EDGE('',*,*,#226,.F.);
#289=ORIENTED_EDGE('',*,*,#229,.F.);
#290=ORIENTED_EDGE('',*,*,#232,.T.);
#291=ORIENTED_EDGE('',*,*,#223,.F.);
#292=ORIENTED_EDGE('',*,*,#233,.T.);
#293=ORIENTED_EDGE('',*,*,#234,.T.);
#294=ORIENTED_EDGE('',*,*,#224,.F.);
#295=ORIENTED_EDGE('',*,*,#235,.T.);
#296=ORIENTED_EDGE('',*,*,#233,.F.);
#297=ORIENTED_EDGE('',*,*,#232,.F.);
#298=ORIENTED_EDGE('',*,*,#236,.T.);
#299=ORIENTED_EDGE('',*,*,#237,.T.);
#300=ORIENTED_EDGE('',*,*,#234,.F.);
#301=ORIENTED_EDGE('',*,*,#227,.F.);
#302=ORIENTED_EDGE('',*,*,#237,.F.);
#303=ORIENTED_EDGE('',*,*,#238,.T.);
#304=ORIENTED_EDGE('',*,*,#231,.F.);
#305=ORIENTED_EDGE('',*,*,#238,.F.);
#306=ORIENTED_EDGE('',*,*,#239,.T.);
#307=ORIENTED_EDGE('',*,*,#239,.F.);
#308=ORIENTED_EDGE('',*,*,#236,.F.);
#309=ORIENTED_EDGE('',*,*,#240,.T.);
#310=ORIENTED_EDGE('',*,*,#228,.F.);
#311=ORIENTED_EDGE('',*,*,#240,.F.);
#312=ORIENTED_EDGE('',*,*,#235,.F.);
#313=ORIENTED_EDGE('',*,*,#241,.T.);
#314=ORIENTED_EDGE('',*,*,#242,.T.);
#315=ORIENTED_EDGE('',*,*,#243,.T.);
#316=ORIENTED_EDGE('',*,*,#244,.T.);
#317=ORIENTED_EDGE('',*,*,#243,.F.);
#318=ORIENTED_EDGE('',*,*,#245,.T.);
#319=ORIENTED_EDGE('',*,*,#246,.T.);
#320=ORIENTED_EDGE('',*,*,#247,.T.);
#321=ORIENTED_EDGE('',*,*,#248,.T.);
#322=ORIENTED_EDGE('',*,*,#249,.T.);
#323=ORIENTED_EDGE('',*,*,#248,.F.);
#324=ORIENTED_EDGE('',*,*,#244,.F.);
#325=ORIENTED_EDGE('',*,*,#247,.F.);
#326=ORIENTED_EDGE('',*,*,#250,.T.);
#327=ORIENTED_EDGE('',*,*,#241,.F.);
#328=ORIENTED_EDGE('',*,*,#251,.T.);
#329=ORIENTED_EDGE('',*,*,#252,.T.);
#330=ORIENTED_EDGE('',*,*,#242,.F.);
#331=ORIENTED_EDGE('',*,*,#253,.T.);
#332=ORIENTED_EDGE('',*,*,#251,.F.);
#333=ORIENTED_EDGE('',*,*,#250,.F.);
#334=ORIENTED_EDGE('',*,*,#254,.T.);
#335=ORIENTED_EDGE('',*,*,#255,.T.);
#336=ORIENTED_EDGE('',*,*,#252,.F.);
#337=ORIENTED_EDGE('',*,*,#245,.F.);
#338=ORIENTED_EDGE('',*,*,#255,.F.);
#339=ORIENTED_EDGE('',*,*,#256,.T.);
#340=ORIENTED_EDGE('',*,*,#249,.F.);
#341=ORIENTED_EDGE('',*,*,#256,.F.);
#342=ORIENTED_EDGE('',*,*,#257,.T.);
#343=ORIENTED_EDGE('',*,*,#257,.F.);
#344=ORIENTED_EDGE('',*,*,#254,.F.);
#345=ORIENTED_EDGE('',*,*,#258,.T.);
#346=ORIENTED_EDGE('',*,*,#246,.F.);
#347=ORIENTED_EDGE('',*,*,#258,.F.);
#348=ORIENTED_EDGE('',*,*,#253,.F.);
#349=ORIENTED_EDGE('',*,*,#259,.T.);
#350=ORIENTED_EDGE('',*,*,#260,.T.);
#351=ORIENTED_EDGE('',*,*,#261,.T.);
#352=ORIENTED_EDGE('',*,*,#262,.T.);
#353=ORIENTED_EDGE('',*,*,#261,.F.);
#354=ORIENTED_EDGE('',*,*,#263,.T.);
#355=ORIENTED_EDGE('',*,*,#264,.T.);
#356=ORIENTED_EDGE('',*,*,#265,.T.);
#357=ORIENTED_EDGE('',*,*,#266,.T.);
#358=ORIENTED_EDGE('',*,*,#267,.T.);
#359=ORIENTED_EDGE('',*,*,#266,.F.);
#360=ORIENTED_EDGE('',*,*,#262,.F.);
#361=ORIENTED_EDGE('',*,*,#265,.F.);
#362=ORIENTED_EDGE('',*,*,#268,.T.);
#363=ORIENTED_EDGE('',*,*,#259,.F.);
#364=ORIENTED_EDGE('',*,*,#269,.T.);
#365=ORIENTED_EDGE('',*,*,#270,.T.);
#366=ORIENTED_EDGE('',*,*,#260,.F.);
#367=ORIENTED_EDGE('',*,*,#271,.T.);
#368=ORIENTED_EDGE('',*,*,#269,.F.);
#369=ORIENTED_EDGE('',*,*,#268,.F.);
#370=ORIENTED_EDGE('',*,*,#272,.T.);
#371=ORIENTED_EDGE('',*,*,#273,.T.);
#372=ORIENTED_EDGE('',*,*,#270,.F.);
#373=ORIENTED_EDGE('',*,*,#263,.F.);
#374=ORIENTED_EDGE('',*,*,#273,.F.);
#375=ORIENTED_EDGE('',*,*,#274,.T.);
#376=ORIENTED_EDGE('',*,*,#267,.F.);
#377=ORIENTED_EDGE('',*,*,#274,.F.);
#378=ORIENTED_EDGE('',*,*,#275,.T.);
#379=ORIENTED_EDGE('',*,*,#275,.F.);
#380=ORIENTED_EDGE('',*,*,#272,.F.);
#381=ORIENTED_EDGE('',*,*,#276,.T.);
#382=ORIENTED_EDGE('',*,*,#264,.F.);
#383=ORIENTED_EDGE('',*,*,#276,.F.);
#384=ORIENTED_EDGE('',*,*,#271,.F.);
#385=PLANE('',#473);
#386=PLANE('',#474);
#387=PLANE('',#475);
#388=PLANE('',#476);
#389=PLANE('',#477);
#390=PLANE('',#478);
#391=PLANE('',#479);
#392=PLANE('',#480);
#393=PLANE('',#481);
#394=PLANE('',#482);
#395=PLANE('',#483);
#396=PLANE('',#484);
#397=PLANE('',#485);
#398=PLANE('',#486);
#399=PLANE('',#487);
#400=PLANE('',#488);
#401=PLANE('',#489);
#402=PLANE('',#490);
#403=PLANE('',#491);
#404=PLANE('',#492);
#405=PLANE('',#493);
#406=PLANE('',#494);
#407=PLANE('',#495);
#408=PLANE('',#496);
#409=PLANE('',#497);
#410=PLANE('',#498);
#411=PLANE('',#499);
#412=PLANE('',#500);
#413=PLANE('',#501);
#414=PLANE('',#502);
#415=PLANE('',#503);
#416=PLANE('',#504);
#417=PLANE('',#505);
#418=PLANE('',#506);
#419=PLANE('',#507);
#420=PLANE('',#508);
#421=ADVANCED_FACE('',(#19),#385,.T.);
#422=ADVANCED_FACE('',(#20),#386,.T.);
#423=ADVANCED_FACE('',(#21),#387,.T.);
#424=ADVANCED_FACE('',(#22),#388,.T.);
#425=ADVANCED_FACE('',(#23),#389,.T.);
#426=ADVANCED_FACE('',(#24),#390,.T.);
#427=ADVANCED_FACE('',(#25),#391,.T.);
#428=ADVANCED_FACE('',(#26),#392,.T.);
#429=ADVANCED_FACE('',(#27),#393,.T.);
#430=ADVANCED_FACE('',(#28),#394,.T.);
#431=ADVANCED_FACE('',(#29),#395,.T.);
#432=ADVANCED_FACE('',(#30),#396,.T.);
#433=ADVANCED_FACE('',(#31),#397,.T.);
#434=ADVANCED_FACE('',(#32),#398,.T.);
#435=ADVANCED_FACE('',(#33),#399,.T.);
#436=ADVANCED_FACE('',(#34),#400,.T.);
#437=ADVANCED_FACE('',(#35),#401,.T.);
#438=ADVANCED_FACE('',(#36),#402,.T.);
#439=ADVANCED_FACE('',(#37),#403,.T.);
#440=ADVANCED_FACE('',(#38),#404,.T.);
#441=ADVANCED_FACE('',(#39),#405,.T.);
#442=ADVANCED_FACE('',(#40),#406,.T.);
#443=ADVANCED_FACE('',(#41),#407,.T.);
#444=ADVANCED_FACE('',(#42),#408,.T.);
#445=ADVANCED_FACE('',(#43),#409,.T.);
#446=ADVANCED_FACE('',(#44),#410,.T.);
#447=ADVANCED_FACE('',(#45),#411,.T.);
#448=ADVANCED_FACE('',(#46),#412,.T.);
#449=ADVANCED_FACE('',(#47),#413,.T.);
#450=ADVANCED_FACE('',(#48),#414,.T.);
#451=ADVANCED_FACE('',(#49),#415,.T.);
#452=ADVANCED_FACE('',(#50),#416,.T.);
#453=ADVANCED_FACE('',(#51),#417,.T.);
#454=ADVANCED_FACE('',(#52),#418,.T.);
#455=ADVANCED_FACE('',(#53),#419,.T.);
#456=ADVANCED_FACE('',(#54),#420,.T.);
#457=CLOSED_SHELL('',(#421,#422,#423,#424,#425,#426,#427,#428,#429,#430,
#431,#432));
#458=CLOSED_SHELL('',(#433,#434,#435,#436,#437,#438,#439,#440,#441,#442,
#443,#444));
#459=CLOSED_SHELL('',(#445,#446,#447,#448,#449,#450,#451,#452,#453,#454,
#455,#456));
#460=DERIVED_UNIT_ELEMENT(#462,1.);
#461=DERIVED_UNIT_ELEMENT(#757,-3.);
#462=(
MASS_UNIT()
NAMED_UNIT(*)
SI_UNIT(.KILO.,.GRAM.)
);
#463=DERIVED_UNIT((#460,#461));
#464=MEASURE_REPRESENTATION_ITEM('density measure',
POSITIVE_RATIO_MEASURE(7850.),#463);
#465=PROPERTY_DEFINITION_REPRESENTATION(#470,#467);
#466=PROPERTY_DEFINITION_REPRESENTATION(#471,#468);
#467=REPRESENTATION('material name',(#469),#754);
#468=REPRESENTATION('density',(#464),#754);
#469=DESCRIPTIVE_REPRESENTATION_ITEM('Steel','Steel');
#470=PROPERTY_DEFINITION('material property','material name',#764);
#471=PROPERTY_DEFINITION('material property','density of part',#764);
#472=AXIS2_PLACEMENT_3D('',#637,#509,#510);
#473=AXIS2_PLACEMENT_3D('',#638,#511,#512);
#474=AXIS2_PLACEMENT_3D('',#645,#516,#517);
#475=AXIS2_PLACEMENT_3D('',#649,#520,#521);
#476=AXIS2_PLACEMENT_3D('',#655,#525,#526);
#477=AXIS2_PLACEMENT_3D('',#657,#528,#529);
#478=AXIS2_PLACEMENT_3D('',#659,#531,#532);
#479=AXIS2_PLACEMENT_3D('',#663,#535,#536);
#480=AXIS2_PLACEMENT_3D('',#665,#538,#539);
#481=AXIS2_PLACEMENT_3D('',#669,#542,#543);
#482=AXIS2_PLACEMENT_3D('',#671,#545,#546);
#483=AXIS2_PLACEMENT_3D('',#673,#548,#549);
#484=AXIS2_PLACEMENT_3D('',#675,#551,#552);
#485=AXIS2_PLACEMENT_3D('',#676,#553,#554);
#486=AXIS2_PLACEMENT_3D('',#683,#558,#559);
#487=AXIS2_PLACEMENT_3D('',#687,#562,#563);
#488=AXIS2_PLACEMENT_3D('',#693,#567,#568);
#489=AXIS2_PLACEMENT_3D('',#695,#570,#571);
#490=AXIS2_PLACEMENT_3D('',#697,#573,#574);
#491=AXIS2_PLACEMENT_3D('',#701,#577,#578);
#492=AXIS2_PLACEMENT_3D('',#703,#580,#581);
#493=AXIS2_PLACEMENT_3D('',#707,#584,#585);
#494=AXIS2_PLACEMENT_3D('',#709,#587,#588);
#495=AXIS2_PLACEMENT_3D('',#711,#590,#591);
#496=AXIS2_PLACEMENT_3D('',#713,#593,#594);
#497=AXIS2_PLACEMENT_3D('',#714,#595,#596);
#498=AXIS2_PLACEMENT_3D('',#721,#600,#601);
#499=AXIS2_PLACEMENT_3D('',#725,#604,#605);
#500=AXIS2_PLACEMENT_3D('',#731,#609,#610);
#501=AXIS2_PLACEMENT_3D('',#733,#612,#613);
#502=AXIS2_PLACEMENT_3D('',#735,#615,#616);
#503=AXIS2_PLACEMENT_3D('',#739,#619,#620);
#504=AXIS2_PLACEMENT_3D('',#741,#622,#623);
#505=AXIS2_PLACEMENT_3D('',#745,#626,#627);
#506=AXIS2_PLACEMENT_3D('',#747,#629,#630);
#507=AXIS2_PLACEMENT_3D('',#749,#632,#633);
#508=AXIS2_PLACEMENT_3D('',#751,#635,#636);
#509=DIRECTION('axis',(0.,0.,1.));
#510=DIRECTION('refdir',(1.,0.,0.));
#511=DIRECTION('center_axis',(1.,0.,0.));
#512=DIRECTION('ref_axis',(0.,-1.,2.22044604925031E-16));
#513=DIRECTION('',(0.,-1.,2.22044604925031E-16));
#514=DIRECTION('',(0.,-2.22044604925031E-16,-1.));
#515=DIRECTION('',(0.,0.532922417644608,0.846164107470782));
#516=DIRECTION('center_axis',(1.,0.,0.));
#517=DIRECTION('ref_axis',(0.,2.22044604925031E-16,1.));
#518=DIRECTION('',(0.,2.22044604925031E-16,1.));
#519=DIRECTION('',(0.,1.,-2.22044604925031E-16));
#520=DIRECTION('center_axis',(0.,1.,-2.22044604925031E-16));
#521=DIRECTION('ref_axis',(0.,2.22044604925031E-16,1.));
#522=DIRECTION('',(0.,2.22044604925031E-16,1.));
#523=DIRECTION('',(1.,0.,0.));
#524=DIRECTION('',(-0.739395828917883,-1.49496188047354E-16,-0.673270976783372));
#525=DIRECTION('center_axis',(0.,1.,-2.22044604925031E-16));
#526=DIRECTION('ref_axis',(-1.,0.,0.));
#527=DIRECTION('',(-1.,0.,0.));
#528=DIRECTION('center_axis',(0.,2.22044604925031E-16,1.));
#529=DIRECTION('ref_axis',(-1.,0.,0.));
#530=DIRECTION('',(0.867473541758645,-0.497483320673881,1.10463487395825E-16));
#531=DIRECTION('center_axis',(0.,-1.,2.22044604925031E-16));
#532=DIRECTION('ref_axis',(-1.,0.,0.));
#533=DIRECTION('',(-1.,0.,0.));
#534=DIRECTION('',(0.739395828917883,-1.49496188047354E-16,-0.673270976783372));
#535=DIRECTION('center_axis',(0.,2.22044604925031E-16,1.));
#536=DIRECTION('ref_axis',(0.,-1.,2.22044604925031E-16));
#537=DIRECTION('',(0.,-1.,2.22044604925031E-16));
#538=DIRECTION('center_axis',(0.,-1.,2.22044604925031E-16));
#539=DIRECTION('ref_axis',(0.,-2.22044604925031E-16,-1.));
#540=DIRECTION('',(0.,-2.22044604925031E-16,-1.));
#541=DIRECTION('',(1.,0.,0.));
#542=DIRECTION('center_axis',(0.,-2.22044604925031E-16,-1.));
#543=DIRECTION('ref_axis',(0.,-1.,2.22044604925031E-16));
#544=DIRECTION('',(0.867473541758645,0.497483320673881,-1.10463487395825E-16));
#545=DIRECTION('center_axis',(0.,-2.22044604925031E-16,-1.));
#546=DIRECTION('ref_axis',(1.,0.,0.));
#547=DIRECTION('',(0.,1.,-2.22044604925031E-16));
#548=DIRECTION('center_axis',(-1.,0.,0.));
#549=DIRECTION('ref_axis',(0.,-1.,2.22044604925031E-16));
#550=DIRECTION('',(0.,0.532922417644608,-0.846164107470783));
#551=DIRECTION('center_axis',(-1.,0.,0.));
#552=DIRECTION('ref_axis',(0.,-2.22044604925031E-16,-1.));
#553=DIRECTION('center_axis',(0.,-1.,3.80647896858194E-16));
#554=DIRECTION('ref_axis',(-1.,0.,0.));
#555=DIRECTION('',(-1.,0.,0.));
#556=DIRECTION('',(0.,-3.80647896858194E-16,-1.));
#557=DIRECTION('',(0.175790641384842,3.74720286029313E-16,0.984427574990413));
#558=DIRECTION('center_axis',(0.,-1.,3.80647896858194E-16));
#559=DIRECTION('ref_axis',(0.,3.80647896858194E-16,1.));
#560=DIRECTION('',(0.,3.80647896858194E-16,1.));
#561=DIRECTION('',(1.,0.,0.));
#562=DIRECTION('center_axis',(1.,0.,0.));
#563=DIRECTION('ref_axis',(0.,2.22044604925031E-16,1.));
#564=DIRECTION('',(0.,2.22044604925031E-16,1.));
#565=DIRECTION('',(0.,-1.,2.22044604925031E-16));
#566=DIRECTION('',(0.,0.75176133144495,-0.659435289125563));
#567=DIRECTION('center_axis',(1.,0.,0.));
#568=DIRECTION('ref_axis',(0.,1.,-2.22044604925031E-16));
#569=DIRECTION('',(0.,1.,-2.22044604925031E-16));
#570=DIRECTION('center_axis',(0.,2.22044604925031E-16,1.));
#571=DIRECTION('ref_axis',(0.,1.,-2.22044604925031E-16));
#572=DIRECTION('',(-0.154753512451886,-0.98795311142979,2.19369658311883E-16));
#573=DIRECTION('center_axis',(-1.,0.,0.));
#574=DIRECTION('ref_axis',(0.,1.,-2.22044604925031E-16));
#575=DIRECTION('',(0.,1.,-2.22044604925031E-16));
#576=DIRECTION('',(0.,-0.751761331444951,-0.659435289125563));
#577=DIRECTION('center_axis',(0.,2.22044604925031E-16,1.));
#578=DIRECTION('ref_axis',(-1.,0.,0.));
#579=DIRECTION('',(-1.,0.,0.));
#580=DIRECTION('center_axis',(-1.,0.,0.));
#581=DIRECTION('ref_axis',(0.,-2.22044604925031E-16,-1.));
#582=DIRECTION('',(0.,-2.22044604925031E-16,-1.));
#583=DIRECTION('',(0.,-1.,2.22044604925031E-16));
#584=DIRECTION('center_axis',(0.,-2.22044604925031E-16,-1.));
#585=DIRECTION('ref_axis',(-1.,0.,0.));
#586=DIRECTION('',(0.154753512451886,-0.98795311142979,2.19369658311883E-16));
#587=DIRECTION('center_axis',(0.,-2.22044604925031E-16,-1.));
#588=DIRECTION('ref_axis',(0.,-1.,2.22044604925031E-16));
#589=DIRECTION('',(1.,0.,0.));
#590=DIRECTION('center_axis',(0.,1.,-2.22044604925031E-16));
#591=DIRECTION('ref_axis',(-1.,0.,0.));
#592=DIRECTION('',(0.175790641384842,-2.18586831966053E-16,-0.984427574990413));
#593=DIRECTION('center_axis',(0.,1.,-2.22044604925031E-16));
#594=DIRECTION('ref_axis',(0.,-2.22044604925031E-16,-1.));
#595=DIRECTION('center_axis',(1.,0.,0.));
#596=DIRECTION('ref_axis',(0.,-1.,2.22044604925031E-16));
#597=DIRECTION('',(0.,-1.,2.22044604925031E-16));
#598=DIRECTION('',(0.,-2.22044604925031E-16,-1.));
#599=DIRECTION('',(0.,0.175790633134599,0.984427576463671));
#600=DIRECTION('center_axis',(1.,0.,0.));
#601=DIRECTION('ref_axis',(0.,2.22044604925031E-16,1.));
#602=DIRECTION('',(0.,2.22044604925031E-16,1.));
#603=DIRECTION('',(0.,1.,-2.22044604925031E-16));
#604=DIRECTION('center_axis',(0.,1.,-2.22044604925031E-16));
#605=DIRECTION('ref_axis',(0.,2.22044604925031E-16,1.));
#606=DIRECTION('',(0.,2.22044604925031E-16,1.));
#607=DIRECTION('',(1.,0.,0.));
#608=DIRECTION('',(-0.739395828917883,-1.49496188047354E-16,-0.673270976783372));
#609=DIRECTION('center_axis',(0.,1.,-2.22044604925031E-16));
#610=DIRECTION('ref_axis',(-1.,0.,0.));
#611=DIRECTION('',(-1.,0.,0.));
#612=DIRECTION('center_axis',(0.,2.22044604925031E-16,1.));
#613=DIRECTION('ref_axis',(-1.,0.,0.));
#614=DIRECTION('',(0.987036850612576,-0.160493786586295,3.56367794354761E-17));
#615=DIRECTION('center_axis',(0.,-1.,2.22044604925031E-16));
#616=DIRECTION('ref_axis',(-1.,0.,0.));
#617=DIRECTION('',(-1.,0.,0.));
#618=DIRECTION('',(0.739395828917883,-1.49496188047354E-16,-0.673270976783372));
#619=DIRECTION('center_axis',(0.,2.22044604925031E-16,1.));
#620=DIRECTION('ref_axis',(0.,-1.,2.22044604925031E-16));
#621=DIRECTION('',(0.,-1.,2.22044604925031E-16));
#622=DIRECTION('center_axis',(0.,-1.,2.22044604925031E-16));
#623=DIRECTION('ref_axis',(0.,-2.22044604925031E-16,-1.));
#624=DIRECTION('',(0.,-2.22044604925031E-16,-1.));
#625=DIRECTION('',(1.,0.,0.));
#626=DIRECTION('center_axis',(0.,-2.22044604925031E-16,-1.));
#627=DIRECTION('ref_axis',(0.,-1.,2.22044604925031E-16));
#628=DIRECTION('',(0.987036850612576,0.160493786586295,-3.56367794354761E-17));
#629=DIRECTION('center_axis',(0.,-2.22044604925031E-16,-1.));
#630=DIRECTION('ref_axis',(1.,0.,0.));
#631=DIRECTION('',(0.,1.,-2.22044604925031E-16));
#632=DIRECTION('center_axis',(-1.,0.,0.));
#633=DIRECTION('ref_axis',(0.,-1.,2.22044604925031E-16));
#634=DIRECTION('',(0.,0.175790633134598,-0.984427576463671));
#635=DIRECTION('center_axis',(-1.,0.,0.));
#636=DIRECTION('ref_axis',(0.,-2.22044604925031E-16,-1.));
#637=CARTESIAN_POINT('',(0.,0.,0.));
#638=CARTESIAN_POINT('Origin',(5.55000019073486,12.6769345283508,14.826934337616));
#639=CARTESIAN_POINT('',(5.55000019073486,12.6769345283508,14.826934337616));
#640=CARTESIAN_POINT('',(5.55000019073486,5.62306528091431,14.826934337616));
#641=CARTESIAN_POINT('',(5.55000019073486,12.6769345283508,14.826934337616));
#642=CARTESIAN_POINT('',(5.55000019073486,5.6230652809143,3.62693452835083));
#643=CARTESIAN_POINT('',(5.55000019073486,5.62306528091431,14.826934337616));
#644=CARTESIAN_POINT('',(5.55000019073486,5.6230652809143,3.62693452835083));
#645=CARTESIAN_POINT('Origin',(5.55000019073486,12.6769345283508,3.62693452835083));
#646=CARTESIAN_POINT('',(5.55000019073486,12.6769345283508,3.62693452835083));
#647=CARTESIAN_POINT('',(5.55000019073486,12.6769345283508,3.62693452835083));
#648=CARTESIAN_POINT('',(5.55000019073486,5.6230652809143,3.62693452835083));
#649=CARTESIAN_POINT('Origin',(-6.75,12.6769345283508,3.62693452835083));
#650=CARTESIAN_POINT('',(-6.75,12.6769345283508,3.62693452835083));
#651=CARTESIAN_POINT('',(-6.75,12.6769345283508,14.826934337616));
#652=CARTESIAN_POINT('',(-6.75,12.6769345283508,3.62693452835083));
#653=CARTESIAN_POINT('',(-6.75,12.6769345283508,14.826934337616));
#654=CARTESIAN_POINT('',(5.55000019073486,12.6769345283508,14.826934337616));
#655=CARTESIAN_POINT('Origin',(5.55000019073486,12.6769345283508,3.62693452835083));
#656=CARTESIAN_POINT('',(5.55000019073486,12.6769345283508,3.62693452835083));
#657=CARTESIAN_POINT('Origin',(5.55000019073486,12.6769345283508,14.826934337616));
#658=CARTESIAN_POINT('',(-6.75,12.6769345283508,14.826934337616));
#659=CARTESIAN_POINT('Origin',(5.55000019073486,5.62306528091431,14.826934337616));
#660=CARTESIAN_POINT('',(-6.75,5.62306528091431,14.826934337616));
#661=CARTESIAN_POINT('',(5.55000019073486,5.62306528091431,14.826934337616));
#662=CARTESIAN_POINT('',(-6.75,5.62306528091431,14.826934337616));
#663=CARTESIAN_POINT('Origin',(-6.75,12.6769345283508,14.826934337616));
#664=CARTESIAN_POINT('',(-6.75,12.6769345283508,14.826934337616));
#665=CARTESIAN_POINT('Origin',(-6.75,5.62306528091431,14.826934337616));
#666=CARTESIAN_POINT('',(-6.75,5.6230652809143,3.62693452835083));
#667=CARTESIAN_POINT('',(-6.75,5.62306528091431,14.826934337616));
#668=CARTESIAN_POINT('',(-6.75,5.6230652809143,3.62693452835083));
#669=CARTESIAN_POINT('Origin',(5.55000019073486,12.6769345283508,3.62693452835083));
#670=CARTESIAN_POINT('',(-6.75,5.6230652809143,3.62693452835083));
#671=CARTESIAN_POINT('Origin',(-6.75,12.6769345283508,3.62693452835083));
#672=CARTESIAN_POINT('',(-6.75,5.6230652809143,3.62693452835083));
#673=CARTESIAN_POINT('Origin',(-6.75,12.6769345283508,3.62693452835083));
#674=CARTESIAN_POINT('',(-6.75,5.62306528091431,14.826934337616));
#675=CARTESIAN_POINT('Origin',(-6.75,12.6769345283508,14.826934337616));
#676=CARTESIAN_POINT('Origin',(7.,-0.0769345283508599,14.826934337616));
#677=CARTESIAN_POINT('',(7.,-0.0769345283508599,14.826934337616));
#678=CARTESIAN_POINT('',(5.,-0.0769345283508599,14.826934337616));
#679=CARTESIAN_POINT('',(7.,-0.0769345283508599,14.826934337616));
#680=CARTESIAN_POINT('',(5.,-0.0769345283508646,3.62693452835083));
#681=CARTESIAN_POINT('',(5.,-0.0769345283508599,14.826934337616));
#682=CARTESIAN_POINT('',(5.,-0.0769345283508646,3.62693452835083));
#683=CARTESIAN_POINT('Origin',(7.,-0.0769345283508646,3.62693452835083));
#684=CARTESIAN_POINT('',(7.,-0.0769345283508646,3.62693452835083));
#685=CARTESIAN_POINT('',(7.,-0.0769345283508646,3.62693452835083));
#686=CARTESIAN_POINT('',(5.,-0.0769345283508646,3.62693452835083));
#687=CARTESIAN_POINT('Origin',(7.,12.6911519050598,3.62693452835083));
#688=CARTESIAN_POINT('',(7.,12.6911519050598,3.62693452835083));
#689=CARTESIAN_POINT('',(7.,12.6911519050598,14.826934337616));
#690=CARTESIAN_POINT('',(7.,12.6911519050598,3.62693452835083));
#691=CARTESIAN_POINT('',(7.,12.6911519050598,14.826934337616));
#692=CARTESIAN_POINT('',(7.,-0.0769345283508599,14.826934337616));
#693=CARTESIAN_POINT('Origin',(7.,-0.0769345283508646,3.62693452835083));
#694=CARTESIAN_POINT('',(7.,-0.0769345283508646,3.62693452835083));
#695=CARTESIAN_POINT('Origin',(7.,-0.0769345283508599,14.826934337616));
#696=CARTESIAN_POINT('',(7.,12.6911519050598,14.826934337616));
#697=CARTESIAN_POINT('Origin',(5.,-0.0769345283508599,14.826934337616));
#698=CARTESIAN_POINT('',(5.,12.6911519050598,14.826934337616));
#699=CARTESIAN_POINT('',(5.,-0.0769345283508599,14.826934337616));
#700=CARTESIAN_POINT('',(5.,12.6911519050598,14.826934337616));
#701=CARTESIAN_POINT('Origin',(7.,12.6911519050598,14.826934337616));
#702=CARTESIAN_POINT('',(7.,12.6911519050598,14.826934337616));
#703=CARTESIAN_POINT('Origin',(5.,12.6911519050598,14.826934337616));
#704=CARTESIAN_POINT('',(5.,12.6911519050598,3.62693452835083));
#705=CARTESIAN_POINT('',(5.,12.6911519050598,14.826934337616));
#706=CARTESIAN_POINT('',(5.,12.6911519050598,3.62693452835083));
#707=CARTESIAN_POINT('Origin',(7.,-0.0769345283508646,3.62693452835083));
#708=CARTESIAN_POINT('',(5.,12.6911519050598,3.62693452835083));
#709=CARTESIAN_POINT('Origin',(7.,12.6911519050598,3.62693452835083));
#710=CARTESIAN_POINT('',(5.,12.6911519050598,3.62693452835083));
#711=CARTESIAN_POINT('Origin',(7.,12.6911519050598,3.62693452835083));
#712=CARTESIAN_POINT('',(5.,12.6911519050598,14.826934337616));
#713=CARTESIAN_POINT('Origin',(7.,12.6911519050598,14.826934337616));
#714=CARTESIAN_POINT('Origin',(7.,2.02306537628174,13.826934337616));
#715=CARTESIAN_POINT('',(7.,2.02306537628174,13.826934337616));
#716=CARTESIAN_POINT('',(7.,0.0230654731392846,13.826934337616));
#717=CARTESIAN_POINT('',(7.,2.02306537628174,13.826934337616));
#718=CARTESIAN_POINT('',(7.,0.023065473139281,2.62693452835083));
#719=CARTESIAN_POINT('',(7.,0.0230654731392846,13.826934337616));
#720=CARTESIAN_POINT('',(7.,0.023065473139281,2.62693452835083));
#721=CARTESIAN_POINT('Origin',(7.,2.02306537628173,2.62693452835083));
#722=CARTESIAN_POINT('',(7.,2.02306537628173,2.62693452835083));
#723=CARTESIAN_POINT('',(7.,2.02306537628173,2.62693452835083));
#724=CARTESIAN_POINT('',(7.,0.023065473139281,2.62693452835083));
#725=CARTESIAN_POINT('Origin',(-5.30000019073486,2.02306537628173,2.62693452835083));
#726=CARTESIAN_POINT('',(-5.30000019073486,2.02306537628173,2.62693452835083));
#727=CARTESIAN_POINT('',(-5.30000019073486,2.02306537628174,13.826934337616));
#728=CARTESIAN_POINT('',(-5.30000019073486,2.02306537628173,2.62693452835083));
#729=CARTESIAN_POINT('',(-5.30000019073486,2.02306537628174,13.826934337616));
#730=CARTESIAN_POINT('',(7.,2.02306537628174,13.826934337616));
#731=CARTESIAN_POINT('Origin',(7.,2.02306537628173,2.62693452835083));
#732=CARTESIAN_POINT('',(7.,2.02306537628173,2.62693452835083));
#733=CARTESIAN_POINT('Origin',(7.,2.02306537628174,13.826934337616));
#734=CARTESIAN_POINT('',(-5.30000019073486,2.02306537628174,13.826934337616));
#735=CARTESIAN_POINT('Origin',(7.,0.0230654731392846,13.826934337616));
#736=CARTESIAN_POINT('',(-5.30000019073486,0.0230654731392846,13.826934337616));
#737=CARTESIAN_POINT('',(7.,0.0230654731392846,13.826934337616));
#738=CARTESIAN_POINT('',(-5.30000019073486,0.0230654731392846,13.826934337616));
#739=CARTESIAN_POINT('Origin',(-5.30000019073486,2.02306537628174,13.826934337616));
#740=CARTESIAN_POINT('',(-5.30000019073486,2.02306537628174,13.826934337616));
#741=CARTESIAN_POINT('Origin',(-5.30000019073486,0.0230654731392846,13.826934337616));
#742=CARTESIAN_POINT('',(-5.30000019073486,0.023065473139281,2.62693452835083));
#743=CARTESIAN_POINT('',(-5.30000019073486,0.0230654731392846,13.826934337616));
#744=CARTESIAN_POINT('',(-5.30000019073486,0.023065473139281,2.62693452835083));
#745=CARTESIAN_POINT('Origin',(7.,2.02306537628173,2.62693452835083));
#746=CARTESIAN_POINT('',(-5.30000019073486,0.023065473139281,2.62693452835083));
#747=CARTESIAN_POINT('Origin',(-5.30000019073486,2.02306537628173,2.62693452835083));
#748=CARTESIAN_POINT('',(-5.30000019073486,0.023065473139281,2.62693452835083));
#749=CARTESIAN_POINT('Origin',(-5.30000019073486,2.02306537628173,2.62693452835083));
#750=CARTESIAN_POINT('',(-5.30000019073486,0.0230654731392846,13.826934337616));
#751=CARTESIAN_POINT('Origin',(-5.30000019073486,2.02306537628174,13.826934337616));
#752=UNCERTAINTY_MEASURE_WITH_UNIT(LENGTH_MEASURE(0.01),#756,
'DISTANCE_ACCURACY_VALUE',
'Maximum model space distance between geometric entities at asserted c
onnectivities');
#753=UNCERTAINTY_MEASURE_WITH_UNIT(LENGTH_MEASURE(0.01),#756,
'DISTANCE_ACCURACY_VALUE',
'Maximum model space distance between geometric entities at asserted c
onnectivities');
#754=(
GEOMETRIC_REPRESENTATION_CONTEXT(3)
GLOBAL_UNCERTAINTY_ASSIGNED_CONTEXT((#752))
GLOBAL_UNIT_ASSIGNED_CONTEXT((#756,#758,#759))
REPRESENTATION_CONTEXT('','3D')
);
#755=(
GEOMETRIC_REPRESENTATION_CONTEXT(3)
GLOBAL_UNCERTAINTY_ASSIGNED_CONTEXT((#753))
GLOBAL_UNIT_ASSIGNED_CONTEXT((#756,#758,#759))
REPRESENTATION_CONTEXT('','3D')
);
#756=(
LENGTH_UNIT()
NAMED_UNIT(*)
SI_UNIT(.MILLI.,.METRE.)
);
#757=(
LENGTH_UNIT()
NAMED_UNIT(*)
SI_UNIT($,.METRE.)
);
#758=(
NAMED_UNIT(*)
PLANE_ANGLE_UNIT()
SI_UNIT($,.RADIAN.)
);
#759=(
NAMED_UNIT(*)
SI_UNIT($,.STERADIAN.)
SOLID_ANGLE_UNIT()
);
#760=SHAPE_DEFINITION_REPRESENTATION(#761,#762);
#761=PRODUCT_DEFINITION_SHAPE('',$,#764);
#762=SHAPE_REPRESENTATION('',(#472),#754);
#763=PRODUCT_DEFINITION_CONTEXT('part definition',#768,'design');
#764=PRODUCT_DEFINITION('product0','VibrationModuleHolder',#765,#763);
#765=PRODUCT_DEFINITION_FORMATION('',$,#770);
#766=PRODUCT_RELATED_PRODUCT_CATEGORY('VibrationModuleHolder',
'VibrationModuleHolder',(#770));
#767=APPLICATION_PROTOCOL_DEFINITION('international standard',
'automotive_design',2009,#768);
#768=APPLICATION_CONTEXT(
'Core Data for Automotive Mechanical Design Process');
#769=PRODUCT_CONTEXT('part definition',#768,'mechanical');
#770=PRODUCT('product0','VibrationModuleHolder',$,(#769));
#771=PRESENTATION_STYLE_ASSIGNMENT((#772));
#772=SURFACE_STYLE_USAGE(.BOTH.,#773);
#773=SURFACE_SIDE_STYLE('',(#774));
#774=SURFACE_STYLE_FILL_AREA(#775);
#775=FILL_AREA_STYLE('Steel - Satin',(#776));
#776=FILL_AREA_STYLE_COLOUR('Steel - Satin',#777);
#777=COLOUR_RGB('Steel - Satin',0.627450980392157,0.627450980392157,0.627450980392157);
ENDSEC;
END-ISO-10303-21;
